#Comment line ignore any data following # character 
#Hierarchical Translation and Rotation (.htr) file 
[Header]	
#Header keywords are followed by a single value 
FileType HTR		#Single word string
DataType HTRS		#Translation followed by rotation and scale data
FileVersion 1		#integer
NumSegments 84		#integer
NumFrames 2		#integer
DataFrameRate 30		#integer, data frame rate in this file
EulerRotationOrder ZYX
CalibrationUnits mm
RotationUnits Degrees
GlobalAxisofGravity Y
BoneLengthAxis Y
ScaleFactor 1.00
[SegmentNames&Hierarchy]
#CHILD	PARENT
MASTER GLOBAL
root MASTER
chest root
L_mid_tent01 root
R_mid_tent01 root
spine01 root
Bip01_Neck chest
L_humerus chest
R_humerus chest
weapon_bone chest
Bip01_Head Bip01_Neck
eye_left_bone Bip01_Head
eye_right_bone Bip01_Head
L_forearm L_humerus
L_front_hand L_forearm
L_weapon_bone L_forearm
L_front_hand01_01 L_front_hand
L_front_hand02_01 L_front_hand
L_front_hand03_01 L_front_hand
L_front_hand01_02 L_front_hand01_01
L_front_hand02_02 L_front_hand02_01
L_front_hand03_02 L_front_hand03_01
R_forearm R_humerus
R_front_hand R_forearm
R_weapon_bone R_forearm
R_front_hand01_01 R_front_hand
R_front_hand02_01 R_front_hand
R_front_hand03_01 R_front_hand
R_front_hand01_02 R_front_hand01_01
R_front_hand02_02 R_front_hand02_01
R_front_hand03_02 R_front_hand03_01
null_rope01_connect L_mid_tent01
Rope1_Seg01 null_rope01_connect
Rope1_Seg02 Rope1_Seg01
Rope1_Seg03 Rope1_Seg02
Rope1_Seg04 Rope1_Seg03
Rope1_Seg05 Rope1_Seg04
Rope1_Seg06 Rope1_Seg05
Rope1_Seg07 Rope1_Seg06
Rope1_Seg09 Rope1_Seg07
L_mid_hand01 Rope1_Seg09
L_mid_hand02 Rope1_Seg09
L_mid_hand03 Rope1_Seg09
null_rope02_connect R_mid_tent01
Rope2_Seg01 null_rope02_connect
Rope2_Seg02 Rope2_Seg01
Rope2_Seg03 Rope2_Seg02
Rope2_Seg04 Rope2_Seg03
Rope2_Seg05 Rope2_Seg04
Rope2_Seg06 Rope2_Seg05
Rope2_Seg07 Rope2_Seg06
Rope2_Seg09 Rope2_Seg07
R_mid_hand01 Rope2_Seg09
R_mid_hand02 Rope2_Seg09
R_mid_hand03 Rope2_Seg09
spine02 spine01
spine03 spine02
pelvis spine03
null_rope03_connect pelvis
null_rope04_connect pelvis
Rope3_Seg01 null_rope03_connect
Rope3_Seg02 Rope3_Seg01
Rope3_Seg03 Rope3_Seg02
Rope3_Seg04 Rope3_Seg03
Rope3_Seg05 Rope3_Seg04
Rope3_Seg06 Rope3_Seg05
Rope3_Seg07 Rope3_Seg06
Rope3_Seg08 Rope3_Seg07
Rope3_Seg09 Rope3_Seg08
R_rear_hand01 Rope3_Seg09
R_rear_hand02 Rope3_Seg09
R_rear_hand03 Rope3_Seg09
Rope4_Seg01 null_rope04_connect
Rope4_Seg02 Rope4_Seg01
Rope4_Seg03 Rope4_Seg02
Rope4_Seg04 Rope4_Seg03
Rope4_Seg05 Rope4_Seg04
Rope4_Seg06 Rope4_Seg05
Rope4_Seg07 Rope4_Seg06
Rope4_Seg08 Rope4_Seg07
Rope4_Seg09 Rope4_Seg08
L_rear_hand01 Rope4_Seg09
L_rear_hand02 Rope4_Seg09
L_rear_hand03 Rope4_Seg09
[BasePosition]
#SegmentName Tx, Ty, Tz, Rx, Ry, Rz, BoneLength
MASTER 0.000000 0.000000 0.000000 -90.000000 0.000000 0.000000 10.000000 
root 0.000000 0.000000 0.000000 0.000000 0.000000 0.000000 10.000000 
chest 0.000000 0.000000 0.000000 0.000000 0.000000 0.000000 10.000000 
L_mid_tent01 0.000000 0.000000 0.000000 0.000000 0.000000 0.000000 10.000000 
R_mid_tent01 0.000000 0.000000 0.000000 0.000000 0.000000 0.000000 10.000000 
spine01 0.000000 0.000000 0.000000 0.000000 0.000000 0.000000 10.000000 
Bip01_Neck 0.000000 0.000000 0.000000 0.000000 0.000000 0.000000 10.000000 
L_humerus 0.000000 0.000000 0.000000 0.000000 0.000000 0.000000 10.000000 
R_humerus 0.000000 0.000000 0.000000 0.000000 0.000000 0.000000 10.000000 
weapon_bone 0.000000 0.000000 0.000000 0.000000 0.000000 0.000000 10.000000 
Bip01_Head 0.000000 0.000000 0.000000 0.000000 0.000000 0.000000 10.000000 
eye_left_bone 0.000000 0.000000 0.000000 0.000000 0.000000 0.000000 10.000000 
eye_right_bone 0.000000 0.000000 0.000000 0.000000 0.000000 0.000000 10.000000 
L_forearm 0.000000 0.000000 0.000000 0.000000 0.000000 0.000000 10.000000 
L_front_hand 0.000000 0.000000 0.000000 0.000000 0.000000 0.000000 10.000000 
L_weapon_bone 0.000000 0.000000 0.000000 0.000000 0.000000 0.000000 10.000000 
L_front_hand01_01 0.000000 0.000000 0.000000 0.000000 0.000000 0.000000 10.000000 
L_front_hand02_01 0.000000 0.000000 0.000000 0.000000 0.000000 0.000000 10.000000 
L_front_hand03_01 0.000000 0.000000 0.000000 0.000000 0.000000 0.000000 10.000000 
L_front_hand01_02 0.000000 0.000000 0.000000 0.000000 0.000000 0.000000 10.000000 
L_front_hand02_02 0.000000 0.000000 0.000000 0.000000 0.000000 0.000000 10.000000 
L_front_hand03_02 0.000000 0.000000 0.000000 0.000000 0.000000 0.000000 10.000000 
R_forearm 0.000000 0.000000 0.000000 0.000000 0.000000 0.000000 10.000000 
R_front_hand 0.000000 0.000000 0.000000 0.000000 0.000000 0.000000 10.000000 
R_weapon_bone 0.000000 0.000000 0.000000 0.000000 0.000000 0.000000 10.000000 
R_front_hand01_01 0.000000 0.000000 0.000000 0.000000 0.000000 0.000000 10.000000 
R_front_hand02_01 0.000000 0.000000 0.000000 0.000000 0.000000 0.000000 10.000000 
R_front_hand03_01 0.000000 0.000000 0.000000 0.000000 0.000000 0.000000 10.000000 
R_front_hand01_02 0.000000 0.000000 0.000000 0.000000 0.000000 0.000000 10.000000 
R_front_hand02_02 0.000000 0.000000 0.000000 0.000000 0.000000 0.000000 10.000000 
R_front_hand03_02 0.000000 0.000000 0.000000 0.000000 0.000000 0.000000 10.000000 
null_rope01_connect 0.000000 0.000000 0.000000 0.000000 0.000000 0.000000 10.000000 
Rope1_Seg01 0.000000 0.000000 0.000000 0.000000 0.000000 0.000000 10.000000 
Rope1_Seg02 0.000000 0.000000 0.000000 0.000000 0.000000 0.000000 10.000000 
Rope1_Seg03 0.000000 0.000000 0.000000 0.000000 0.000000 0.000000 10.000000 
Rope1_Seg04 0.000000 0.000000 0.000000 0.000000 0.000000 0.000000 10.000000 
Rope1_Seg05 0.000000 0.000000 0.000000 0.000000 0.000000 0.000000 10.000000 
Rope1_Seg06 0.000000 0.000000 0.000000 0.000000 0.000000 0.000000 10.000000 
Rope1_Seg07 0.000000 0.000000 0.000000 0.000000 0.000000 0.000000 10.000000 
Rope1_Seg09 0.000000 0.000000 0.000000 0.000000 0.000000 0.000000 10.000000 
L_mid_hand01 0.000000 0.000000 0.000000 0.000000 0.000000 0.000000 10.000000 
L_mid_hand02 0.000000 0.000000 0.000000 0.000000 0.000000 0.000000 10.000000 
L_mid_hand03 0.000000 0.000000 0.000000 0.000000 0.000000 0.000000 10.000000 
null_rope02_connect 0.000000 0.000000 0.000000 0.000000 0.000000 0.000000 10.000000 
Rope2_Seg01 0.000000 0.000000 0.000000 0.000000 0.000000 0.000000 10.000000 
Rope2_Seg02 0.000000 0.000000 0.000000 0.000000 0.000000 0.000000 10.000000 
Rope2_Seg03 0.000000 0.000000 0.000000 0.000000 0.000000 0.000000 10.000000 
Rope2_Seg04 0.000000 0.000000 0.000000 0.000000 0.000000 0.000000 10.000000 
Rope2_Seg05 0.000000 0.000000 0.000000 0.000000 0.000000 0.000000 10.000000 
Rope2_Seg06 0.000000 0.000000 0.000000 0.000000 0.000000 0.000000 10.000000 
Rope2_Seg07 0.000000 0.000000 0.000000 0.000000 0.000000 0.000000 10.000000 
Rope2_Seg09 0.000000 0.000000 0.000000 0.000000 0.000000 0.000000 10.000000 
R_mid_hand01 0.000000 0.000000 0.000000 0.000000 0.000000 0.000000 10.000000 
R_mid_hand02 0.000000 0.000000 0.000000 0.000000 0.000000 0.000000 10.000000 
R_mid_hand03 0.000000 0.000000 0.000000 0.000000 0.000000 0.000000 10.000000 
spine02 0.000000 0.000000 0.000000 0.000000 0.000000 0.000000 10.000000 
spine03 0.000000 0.000000 0.000000 0.000000 0.000000 0.000000 10.000000 
pelvis 0.000000 0.000000 0.000000 0.000000 0.000000 0.000000 10.000000 
null_rope03_connect 0.000000 0.000000 0.000000 0.000000 0.000000 0.000000 10.000000 
null_rope04_connect 0.000000 0.000000 0.000000 0.000000 0.000000 0.000000 10.000000 
Rope3_Seg01 0.000000 0.000000 0.000000 0.000000 0.000000 0.000000 10.000000 
Rope3_Seg02 0.000000 0.000000 0.000000 0.000000 0.000000 0.000000 10.000000 
Rope3_Seg03 0.000000 0.000000 0.000000 0.000000 0.000000 0.000000 10.000000 
Rope3_Seg04 0.000000 0.000000 0.000000 0.000000 0.000000 0.000000 10.000000 
Rope3_Seg05 0.000000 0.000000 0.000000 0.000000 0.000000 0.000000 10.000000 
Rope3_Seg06 0.000000 0.000000 0.000000 0.000000 0.000000 0.000000 10.000000 
Rope3_Seg07 0.000000 0.000000 0.000000 0.000000 0.000000 0.000000 10.000000 
Rope3_Seg08 0.000000 0.000000 0.000000 0.000000 0.000000 0.000000 10.000000 
Rope3_Seg09 0.000000 0.000000 0.000000 0.000000 0.000000 0.000000 10.000000 
R_rear_hand01 0.000000 0.000000 0.000000 0.000000 0.000000 0.000000 10.000000 
R_rear_hand02 0.000000 0.000000 0.000000 0.000000 0.000000 0.000000 10.000000 
R_rear_hand03 0.000000 0.000000 0.000000 0.000000 0.000000 0.000000 10.000000 
Rope4_Seg01 0.000000 0.000000 0.000000 0.000000 0.000000 0.000000 10.000000 
Rope4_Seg02 0.000000 0.000000 0.000000 0.000000 0.000000 0.000000 10.000000 
Rope4_Seg03 0.000000 0.000000 0.000000 0.000000 0.000000 0.000000 10.000000 
Rope4_Seg04 0.000000 0.000000 0.000000 0.000000 0.000000 0.000000 10.000000 
Rope4_Seg05 0.000000 0.000000 0.000000 0.000000 0.000000 0.000000 10.000000 
Rope4_Seg06 0.000000 0.000000 0.000000 0.000000 0.000000 0.000000 10.000000 
Rope4_Seg07 0.000000 0.000000 0.000000 0.000000 0.000000 0.000000 10.000000 
Rope4_Seg08 0.000000 0.000000 0.000000 0.000000 0.000000 0.000000 10.000000 
Rope4_Seg09 0.000000 0.000000 0.000000 0.000000 0.000000 0.000000 10.000000 
L_rear_hand01 0.000000 0.000000 0.000000 0.000000 0.000000 0.000000 10.000000 
L_rear_hand02 0.000000 0.000000 0.000000 0.000000 0.000000 0.000000 10.000000 
L_rear_hand03 0.000000 0.000000 0.000000 0.000000 0.000000 0.000000 10.000000 
#Beginning of Data. Separated by tabs
#Fr	Tx	Ty	Tz	Rx	Ry	Rz	SF
[MASTER]
28 -1898.665405 -5379.809082 0.000000 0.000602 0.002269 -60.272377 5705.021973
29 -1935.756714 -5591.955078 0.000000 0.000611 0.002266 -59.803997 5917.526367
[root]
28 -62.822052 103.942123 1134.810669 -87.374115 -4.841010 179.668411 1141.291260
29 -62.822170 103.348366 1146.235718 -86.707306 -4.773234 179.789200 1152.598755
[chest]
28 -84.512650 -34.090519 0.000000 1.910619 -0.744353 156.387985 91.129311
29 -84.512650 -34.090519 0.000000 0.970631 -0.743669 156.386459 91.129311
[L_mid_tent01]
28 23.228750 24.509907 -223.761200 -10.616116 10.187679 -3.705188 226.294907
29 23.228750 24.509907 -223.761200 -12.926812 5.759353 -8.446658 226.294907
[R_mid_tent01]
28 23.228794 24.509907 226.238495 -162.352600 -20.693523 -4.811518 228.744751
29 23.228794 24.509907 226.238495 -163.307114 -22.862732 -5.869270 228.744751
[spine01]
28 -0.361383 -0.195265 0.000000 0.001815 0.001488 11.320962 0.410763
29 -0.361383 -0.195265 0.000000 0.001815 0.001488 11.320962 0.410763
[Bip01_Neck]
28 165.484543 71.581718 0.000119 175.896118 1.177290 24.871183 180.302734
29 165.484543 71.581718 0.000119 175.896118 1.177290 24.871183 180.302734
[L_humerus]
28 -13.983130 -135.272980 -120.471481 69.626144 80.276581 170.348083 181.680161
29 -13.983130 -135.272980 -120.471481 43.333630 78.698799 144.877457 181.680161
[R_humerus]
28 -13.983309 -135.273102 125.287651 -145.388260 -83.042549 -116.256065 184.909012
29 -13.983309 -135.273102 125.287651 -107.615776 -87.366043 -153.563217 184.909012
[weapon_bone]
28 235.964890 -300.705902 0.000000 0.000000 -89.951546 -128.212341 382.234833
29 235.964890 -300.705902 0.000000 0.000000 -89.951546 -128.212341 382.234833
[Bip01_Head]
28 201.313583 211.516739 15.929951 0.270190 4.468234 -64.373894 292.438477
29 201.313568 211.516724 15.929957 -0.228614 4.832858 -64.379951 292.438446
[eye_left_bone]
28 -24.626970 125.451866 -64.772606 0.000000 -90.000000 -99.840431 143.318359
29 -24.626970 125.451866 -64.772606 0.000000 -90.000000 -99.840431 143.318359
[eye_right_bone]
28 -24.626970 125.451866 64.327362 0.000000 -89.965736 80.156380 143.117676
29 -24.626970 125.451866 64.327362 0.000000 -89.965736 80.156380 143.117676
[L_forearm]
28 322.776093 0.000000 -0.000119 0.000357 -0.002320 -107.506004 322.776093
29 322.776093 0.000000 -0.000119 0.000357 -0.002320 -107.506004 322.776093
[L_front_hand]
28 241.149185 -0.042021 -3.300071 -179.431961 -2.195943 -5.942918 241.171753
29 241.149185 -0.042021 -3.300071 -179.431961 -2.195943 -5.942918 241.171753
[L_weapon_bone]
28 156.183838 0.000000 0.000000 0.000014 0.000007 0.000001 156.183838
29 156.183838 0.000000 0.000000 0.000014 0.000007 0.000001 156.183838
[L_front_hand01_01]
28 86.095154 20.947098 -0.655860 0.139491 -0.584553 24.181786 88.609184
29 86.095154 20.947098 -0.655860 0.139491 -0.584553 24.181786 88.609184
[L_front_hand02_01]
28 86.935165 -11.437475 24.513514 119.190460 -21.905655 -12.119137 91.046425
29 86.935165 -11.437475 24.513514 119.190460 -21.905655 -12.119137 91.046425
[L_front_hand03_01]
28 86.637497 -14.123976 -20.424902 -120.437630 20.554031 -14.327168 90.126129
29 86.637497 -14.123976 -20.424902 -120.437630 20.554031 -14.327168 90.126129
[L_front_hand01_02]
28 71.020905 -0.000179 0.000030 0.000334 -0.002323 -106.379684 71.020905
29 71.020905 -0.000179 0.000030 0.000334 -0.002323 -106.379684 71.020905
[L_front_hand02_02]
28 71.020927 -0.000119 0.000060 0.000334 -0.002323 -106.379684 71.020927
29 71.020927 -0.000119 0.000060 0.000334 -0.002323 -106.379684 71.020927
[L_front_hand03_02]
28 71.020905 -0.000060 0.000060 0.000334 -0.002323 -106.379684 71.020905
29 71.020905 -0.000060 0.000060 0.000334 -0.002323 -106.379684 71.020905
[R_forearm]
28 322.776428 -0.000060 0.000030 0.196737 0.083011 -114.368637 322.776428
29 322.776428 -0.000060 0.000030 0.196737 0.083011 -114.368637 322.776428
[R_front_hand]
28 238.847015 -0.006795 2.210259 -0.341870 1.692706 -0.151780 238.857239
29 238.847015 -0.006795 2.210259 -0.341870 1.692706 -0.151780 238.857239
[R_weapon_bone]
28 155.664093 0.002503 -0.000030 0.003487 0.001180 -90.988930 155.664078
29 155.664093 0.002503 -0.000030 0.003487 0.001180 -90.988930 155.664078
[R_front_hand01_01]
28 87.624611 14.231146 22.918642 -119.218056 -22.033409 12.303375 91.683487
29 87.624611 14.231146 22.918642 -119.218056 -22.033409 12.303375 91.683487
[R_front_hand02_01]
28 89.356956 14.367283 -19.491137 120.545532 20.947184 14.823009 92.579636
29 89.356956 14.367283 -19.491137 120.545532 20.947184 14.823009 92.579636
[R_front_hand03_01]
28 87.286232 -22.307278 -0.143439 -0.231628 -0.392922 -24.567768 90.091743
29 87.286232 -22.307278 -0.143439 -0.231628 -0.392922 -24.567768 90.091743
[R_front_hand01_02]
28 71.020905 0.000060 0.000119 0.002323 -0.000334 106.381714 71.020905
29 71.020905 0.000060 0.000119 0.002323 -0.000334 106.381714 71.020905
[R_front_hand02_02]
28 71.020844 -0.000030 -0.000119 0.002323 -0.000334 106.381714 71.020836
29 71.020844 -0.000030 -0.000119 0.002323 -0.000334 106.381714 71.020836
[R_front_hand03_02]
28 71.020905 0.000000 0.000030 0.002323 -0.000334 106.381714 71.020905
29 71.020905 0.000000 0.000030 0.002323 -0.000334 106.381714 71.020905
[null_rope01_connect]
28 328.732483 0.000000 -0.000238 -109.995819 70.881432 169.014359 328.732483
29 328.732483 0.000000 -0.000238 -110.820946 66.883621 173.656204 328.732483
[Rope1_Seg01]
28 -0.000034 0.000004 0.000137 -16.049688 -16.757975 -140.110291 0.000142
29 -0.000036 0.000003 0.000142 -25.324329 -18.914982 -151.650009 0.000147
[Rope1_Seg02]
28 139.999863 -0.000179 0.000000 -45.595459 -36.849659 -49.903885 139.999863
29 139.999863 -0.000179 0.000000 -26.751383 -14.564818 -46.212250 139.999863
[Rope1_Seg03]
28 139.999924 0.000060 -0.000060 -1.215955 10.113283 -81.155609 139.999924
29 139.999924 0.000060 -0.000060 3.695035 7.297755 -79.810257 139.999924
[Rope1_Seg04]
28 139.999924 -0.000060 -0.000119 -12.186524 11.092730 9.372214 139.999924
29 139.999924 -0.000060 -0.000119 -5.829199 5.519975 3.543582 139.999924
[Rope1_Seg05]
28 139.999832 0.000119 -0.000060 -14.659473 16.332184 39.593361 139.999832
29 139.999832 0.000119 -0.000060 -14.449749 10.720362 31.188320 139.999832
[Rope1_Seg06]
28 139.999954 0.000119 -0.000060 -2.150894 1.732157 20.701698 139.999954
29 139.999954 0.000119 -0.000060 -3.610947 1.039709 20.429909 139.999954
[Rope1_Seg07]
28 139.999985 0.000060 0.000000 0.060664 0.592628 6.613173 139.999985
29 139.999985 0.000060 0.000000 -0.407332 0.195578 7.147204 139.999985
[Rope1_Seg09]
28 121.602913 0.000119 -0.000089 -89.793175 -1.359789 0.847147 121.602913
29 121.602913 0.000119 -0.000089 -89.793175 -1.359789 0.847147 121.602913
[L_mid_hand01]
28 103.859421 1.038730 8.195221 106.855484 -31.239275 -9.461397 104.187431
29 103.859421 1.038730 8.195221 106.855484 -31.239275 -9.461397 104.187431
[L_mid_hand02]
28 105.572853 -4.139662 -10.864139 -142.331345 25.752670 -28.774628 106.211075
29 105.572853 -4.139662 -10.864139 -142.331345 25.752670 -28.774628 106.211075
[L_mid_hand03]
28 104.641464 17.579376 -3.913581 -16.122810 9.734291 34.223598 106.179977
29 104.641464 17.579376 -3.913581 -16.122810 9.734291 34.223598 106.179977
[null_rope02_connect]
28 328.732849 0.000179 -0.000119 110.229126 -35.125805 157.639542 328.732849
29 328.732849 0.000179 -0.000119 108.249725 -32.654491 158.415497 328.732849
[Rope2_Seg01]
28 -0.000148 -0.000015 -0.000153 -30.284660 -28.683001 -168.244736 0.000213
29 -0.000149 -0.000010 -0.000153 -22.645315 -21.087091 176.940491 0.000214
[Rope2_Seg02]
28 139.999741 -0.000060 -0.000119 1.989400 2.885381 -7.077939 139.999756
29 139.999741 -0.000060 -0.000119 3.885875 0.996827 -6.247570 139.999756
[Rope2_Seg03]
28 140.000107 0.000030 0.000000 7.050888 5.905288 -16.530081 140.000107
29 140.000107 0.000030 0.000000 9.021883 1.050103 -11.794093 140.000107
[Rope2_Seg04]
28 139.999802 0.000000 -0.000060 53.615311 0.153109 -67.173187 139.999802
29 139.999802 0.000000 -0.000060 41.580521 -11.453680 -43.529041 139.999802
[Rope2_Seg05]
28 139.999985 -0.000060 0.000119 -1.875397 21.966520 -10.685362 139.999985
29 139.999985 -0.000060 0.000119 13.109008 1.191880 -18.755539 139.999985
[Rope2_Seg06]
28 139.999893 -0.000030 -0.000119 -65.032822 31.287636 4.633520 139.999893
29 139.999893 -0.000030 -0.000119 -46.697289 40.605148 -4.786832 139.999893
[Rope2_Seg07]
28 139.999893 0.000060 -0.000060 -18.349464 2.563698 5.146927 139.999893
29 139.999893 0.000060 -0.000060 -29.545673 6.974669 3.957562 139.999893
[Rope2_Seg09]
28 121.338966 0.000089 -0.000060 33.793236 -1.359788 -0.847141 121.338966
29 121.338966 0.000089 -0.000060 33.793236 -1.359788 -0.847141 121.338966
[R_mid_hand01]
28 104.680779 11.144459 -10.335981 -41.523792 25.424656 28.595957 105.778534
29 104.680779 11.144459 -10.335981 -41.523792 25.424656 28.595957 105.778534
[R_mid_hand02]
28 104.070427 2.443552 8.231699 72.847389 -32.746803 10.013901 104.424065
29 104.070427 2.443552 8.231699 72.847389 -32.746803 10.013901 104.424065
[R_mid_hand03]
28 106.028137 -11.221827 -5.996406 -167.901306 10.259192 -37.009720 106.788818
29 106.028137 -11.221827 -5.996406 -167.901306 10.259192 -37.009720 106.788818
[spine02]
28 129.756927 0.001550 0.000119 0.001147 -1.797837 -7.854275 129.756927
29 129.756927 0.001550 0.000119 0.001147 -1.797837 -7.854274 129.756927
[spine03]
28 79.115631 0.000000 -0.000119 1.459971 -2.848092 23.765963 79.115631
29 79.115631 0.000000 -0.000119 1.459971 -2.848092 23.765965 79.115631
[pelvis]
28 169.435242 0.051022 0.000000 -0.000005 0.000003 -4.322055 169.435257
29 169.435242 0.051022 0.000000 -0.000005 0.000003 -4.322055 169.435257
[null_rope03_connect]
28 -1.257226 -2.466202 137.391083 -80.951202 56.064518 169.652039 137.418976
29 -1.257226 -2.466202 137.391083 -79.939125 55.340439 170.414169 137.418976
[null_rope04_connect]
28 -1.259640 -2.480268 -137.844437 -80.951202 56.064518 169.652039 137.872513
29 -1.259640 -2.480268 -137.844437 -79.939125 55.340439 170.414169 137.872513
[Rope3_Seg01]
28 0.000065 -0.000041 0.000137 -127.315956 6.545613 123.612953 0.000157
29 0.000069 -0.000040 0.000142 -123.586525 7.695360 135.172089 0.000163
[Rope3_Seg02]
28 139.999924 -0.000119 0.000060 -0.449054 0.812006 -1.480354 139.999924
29 139.999924 -0.000119 0.000060 -1.422214 3.942278 0.615893 139.999924
[Rope3_Seg03]
28 139.999924 -0.000119 0.000119 -0.571548 0.952738 -1.714419 139.999924
29 139.999924 -0.000119 0.000119 -1.443269 4.692929 0.858344 139.999924
[Rope3_Seg04]
28 139.999924 0.000119 0.000000 -1.045508 1.977842 -1.910994 139.999924
29 139.999924 0.000119 0.000000 -1.655720 7.086443 1.807188 139.999924
[Rope3_Seg05]
28 139.999924 -0.000238 0.000060 -1.523922 3.678507 -2.195071 139.999924
29 139.999924 -0.000238 0.000060 -1.096886 11.174103 3.711723 139.999924
[Rope3_Seg06]
28 139.999893 -0.000119 -0.000060 0.704797 -2.832580 -3.415034 139.999893
29 139.999893 -0.000119 -0.000060 0.307099 -0.245903 -1.730018 139.999893
[Rope3_Seg07]
28 139.999771 0.000060 -0.000119 3.291870 -7.888625 -3.687637 139.999771
29 139.999771 0.000060 -0.000119 2.898606 -11.656974 -7.335431 139.999771
[Rope3_Seg08]
28 139.999985 -0.000060 0.000000 2.142481 -4.230304 -2.339751 139.999985
29 139.999985 -0.000060 0.000000 2.097210 -6.056874 -3.919202 139.999985
[Rope3_Seg09]
28 90.185997 -0.000179 -0.000060 89.793228 -1.359877 -0.847183 90.185997
29 90.185997 -0.000179 -0.000060 89.793228 -1.359877 -0.847183 90.185997
[R_rear_hand01]
28 103.366196 -6.073594 -10.757982 -161.551193 16.666374 -30.088671 104.101845
29 103.366196 -6.073594 -10.757982 -161.551193 16.666374 -30.088671 104.101845
[R_rear_hand02]
28 100.509819 12.039542 -7.992327 -34.280552 19.289745 28.875523 101.543350
29 100.509819 12.039542 -7.992327 -34.280552 19.289745 28.875523 101.543350
[R_rear_hand03]
28 101.539970 5.215704 5.435467 83.366440 -30.933914 7.284830 101.819031
29 101.539970 5.215704 5.435467 83.366440 -30.933914 7.284830 101.819031
[Rope4_Seg01]
28 -0.000130 0.000091 0.000000 58.831207 19.113075 120.710808 0.000158
29 -0.000137 0.000090 0.000000 65.289017 18.019283 147.741516 0.000164
[Rope4_Seg02]
28 139.999985 0.000060 0.000119 -8.113275 -4.971560 6.650302 139.999985
29 139.999985 0.000060 0.000119 -7.101665 -20.679886 -4.243792 139.999985
[Rope4_Seg03]
28 139.999924 0.000000 -0.000238 -3.778932 -4.269410 2.598790 139.999924
29 139.999924 0.000000 -0.000238 -0.797721 -12.754960 -4.787796 139.999924
[Rope4_Seg04]
28 139.999985 0.000000 0.000119 -1.929037 -3.275244 1.071209 139.999985
29 139.999985 0.000000 0.000119 -0.029593 -8.632434 -3.726553 139.999985
[Rope4_Seg05]
28 139.999802 -0.000060 -0.000119 -0.777445 0.858618 1.642876 139.999802
29 139.999802 -0.000060 -0.000119 -0.167061 -0.962700 0.067331 139.999802
[Rope4_Seg06]
28 139.999924 0.000000 0.000060 -0.399503 4.485849 3.030321 139.999924
29 139.999924 0.000000 0.000060 -0.200157 4.009754 2.860236 139.999924
[Rope4_Seg07]
28 139.999802 0.000000 0.000000 -0.645813 6.631968 4.310015 139.999802
29 139.999802 0.000000 0.000000 -0.417023 9.136851 6.133453 139.999802
[Rope4_Seg08]
28 139.999924 0.000000 0.000119 -2.930833 4.038537 3.190764 139.999924
29 139.999924 0.000000 0.000119 -2.515201 5.287907 3.966922 139.999924
[Rope4_Seg09]
28 90.185791 0.000060 0.000060 -135.617828 2.228885 0.850567 90.185791
29 90.185791 0.000060 0.000060 -135.617828 2.228885 0.850567 90.185791
[L_rear_hand01]
28 101.696655 -8.392275 -7.654577 -34.454281 -18.946800 151.655121 102.329041
29 101.696655 -8.392275 -7.654577 -34.454281 -18.946800 151.655121 102.329041
[L_rear_hand02]
28 102.726799 -1.568258 5.773216 83.407906 30.330435 172.796509 102.900848
29 102.726799 -1.568258 5.773216 83.407906 30.330435 172.796509 102.900848
[L_rear_hand03]
28 104.552910 9.721220 -10.420293 -161.379868 -16.473232 -150.512238 105.519653
29 104.552910 9.721220 -10.420293 -161.379868 -16.473232 -150.512238 105.519653
